<?xml version="1.0" encoding="UTF-8"?>
<svg id="Warstwa_1" data-name="Warstwa 1" xmlns="http://www.w3.org/2000/svg" viewBox="0 0 123 128">
  <defs>
    <style>
      .cls-1 {
        fill: #598dcd;
      }

      .cls-1, .cls-2, .cls-3, .cls-4 {
        stroke-width: 0px;
      }

      .cls-2 {
        fill: none;
      }

      .cls-3 {
        fill: #fff;
      }

      .cls-4 {
        fill: #265c91;
      }
    </style>
  </defs>
  <path class="cls-1" d="M101.64,47.56c.18.25.37.48.57.68-2.96-.02-5.92.65-8.39,2.04-3.35,1.89-4.68,4.47-6.38,6.9-7.96,11.31-21.48,15.37-25.54,16.59-17.07,5.14-23.19-7.98-38.04-3.57-8.01,2.37-15.37,8.9-19.77,17.14-.71-.65-1.6-1.3-2.7-1.96-1.61-12.03,9.53-11.3,8.93-19.36-.27-2.3.63-3.6,3.1-3.1,6.83.32-4.6-12.06,4.66-12.95,5.71-1.15-.11-8.08,3.69-10.85,8.03-5.11,1.75-16.49,10.06-20.69,2.77-2.96,3.2-8.08,8.64-7.18,8.04.35,3.14-8.51,13.97-4.29,1.73.39,3.45.39,3.79-1.67.55-5.83,7.19,1.57,7.56-4.17,7.83-2.28,10.07,8.92,17.18,8.03,7.62-1.75,7.53,10.15,13.37,11.17,10.45-.48,13.73,18.03,5.4,23.62-1.46,1.12-.93,2.44-.1,3.62Z"/>
  <rect class="cls-2" x="47.72" y="57.89" width="32.68" height="33.61"/>
  <path class="cls-4" d="M124.23,84.01c-2.74,3.56-2.54,8.81-6.68,11.6-.39.26-.51,1.34-.34,1.92,1.04,8.21-12.18,4.89-15,.4-5.74-6.83-12.8-.84-15.57,5.41-2.54,4.41-5.45-3.89-10.2,1.1-2.72,2.04-7.79-1.73-7.85,3.35-1.04,16.65,20.22,3.24,28.47,11.64,23.02,14.34-116.47,9.11-83.17-.29,8.66,1.67,17.39,5.56,26.09,1.98,4.99-3.72,16.22-.13,17.24-7.37.19-2.88-2.59-2.89-4.48-2.96-9.31,1.21-8.46-12.93-17.61-10.29-2.83.49-4.77,2.1-4.66,5.35-1.61,8.93-18.47.78-21.58-3.6-1.23-1.92-1.61-3.68-1.74-5.36-.27-3.4.42-6.42-3.06-9.55,4.4-8.24,11.76-14.77,19.77-17.14,14.85-4.41,20.97,8.71,38.04,3.57,4.06-1.22,17.58-5.28,25.54-16.59,1.7-2.43,3.03-5.01,6.38-6.9,2.47-1.39,5.43-2.06,8.39-2.04,1.15,1.19,2.67,1.7,4.36,2.03,4.4.34,5.47,2.59,5.91,5.29.32,1.94.31,4.13.97,6.01.39,1.11,1.02,2.12,2.09,2.92.7.48,1.44,1.03,2.02,1.66.89.92,1.46,2,1.17,3.25-2.56,7.11,4.65,9.34,5.5,14.61Z"/>
  <rect class="cls-2" x="47.63" y="26.5" width="32.68" height="33.61"/>
  <path class="cls-3" d="M76.06,75.07l-12.72,14.7c-.13.15-.33.24-.53.24s-.4-.09-.53-.24l-12.72-14.7c-.11-.13-.17-.29-.17-.46,0-.1.02-.2.06-.29.11-.25.37-.41.64-.41h6.62v-10.29c-.01-.05-.02-.1-.02-.16v-10.86h-6.62c-.28,0-.53-.16-.64-.41-.11-.25-.07-.54.11-.75l12.72-14.7c.13-.15.33-.24.53-.24s.4.09.53.24l12.72,14.7c.11.13.17.29.17.46,0,.1-.02.2-.06.29-.11.25-.37.41-.64.41h-6.62v10.28c.01.05.02.1.02.16v10.86h6.62c.28,0,.53.16.64.41.11.25.07.54-.11.75Z"/>
</svg>