<?xml version="1.0" encoding="UTF-8"?>
<svg xmlns="http://www.w3.org/2000/svg" version="1.1" viewBox="0 0 250 250">
  <defs>
    <style>
      .cls-1 {
        fill: #fff;
      }

      .cls-2 {
        fill: #265c91;
      }
    </style>
  </defs>
  <!-- Generator: Adobe Illustrator 28.7.3, SVG Export Plug-In . SVG Version: 1.2.0 Build 164)  -->
  <g>
    <g id="Warstwa_1">
      <path class="cls-2" d="M242.4,163.6c-5.2,6.8-4.8,16.8-12.7,22.1-.7.5-1,2.6-.6,3.7,2,15.6-23.2,9.3-28.6.8-10.9-13-24.4-1.6-29.7,10.3-4.8,8.4-10.4-7.4-19.4,2.1-5.2,3.9-14.8-3.3-15,6.4-2,31.7,38.5,6.2,54.3,22.2,43.9,27.3-222,17.4-158.5-.6,16.5,3.2,33.1,10.6,49.7,3.8,9.5-7.1,30.9-.2,32.9-14,.4-5.5-4.9-5.5-8.5-5.6-17.7,2.3-16.1-24.6-33.6-19.6-5.4.9-9.1,4-8.9,10.2-3.1,17-35.2,1.5-41.1-6.9-2.3-3.7-3.1-7-3.3-10.2-.5-6.5.8-12.2-5.8-18.2-1.4-1.2-3-2.5-5.1-3.7-3.1-22.9,18.2-21.5,17-36.9-.5-4.4,1.2-6.9,5.9-5.9,13,.6-8.8-23,8.9-24.7,10.9-2.2-.2-15.4,7-20.7,15.3-9.7,3.3-31.4,19.2-39.4,5.3-5.6,6.1-15.4,16.5-13.7,15.3.7,6-16.2,26.6-8.2,3.3.7,6.6.7,7.2-3.2,1-11.1,13.7,3,14.4-7.9,14.9-4.3,19.2,17,32.7,15.3,14.5-3.3,14.4,19.3,25.5,21.3,19.9-.9,26.2,34.4,10.3,45-2.8,2.1-1.8,4.7-.2,6.9.3.5.7.9,1.1,1.3,2.2,2.3,5.1,3.2,8.3,3.9,8.4.6,10.4,4.9,11.3,10.1.6,3.7.6,7.9,1.8,11.5.7,2.1,1.9,4,4,5.6,1.3.9,2.7,2,3.9,3.2,1.7,1.8,2.8,3.8,2.2,6.2-4.9,13.6,8.9,17.8,10.5,27.8Z"/>
      <path class="cls-1" d="M152.9,147.6l-24.2,28c-.3.3-.6.5-1,.5s-.8-.2-1-.5l-24.2-28c-.2-.2-.3-.6-.3-.9s0-.4.1-.6c.2-.5.7-.8,1.2-.8h12.6v-19.6c0,0,0-.2,0-.3v-20.7h-12.6c-.5,0-1-.3-1.2-.8-.2-.5-.1-1,.2-1.4l24.2-28c.3-.3.6-.5,1-.5s.8.2,1,.5l24.2,28c.2.2.3.6.3.9s0,.4-.1.6c-.2.5-.7.8-1.2.8h-12.6v19.6c0,0,0,.2,0,.3v20.7h12.6c.5,0,1,.3,1.2.8.2.5.1,1-.2,1.4Z"/>
    </g>
  </g>
</svg>